<svg xmlns="http://www.w3.org/2000/svg" width="80" height="34" fill="none"><rect width="58.65" height="34" x="21.35" fill="#4285F4" rx="17"/><path fill="#fff" d="M34.947 21v-8h1.207v3.477h3.988V13h1.21v8h-1.21v-3.488h-3.988V21h-1.207Zm9.816.133c-.38 0-.724-.07-1.031-.211a1.738 1.738 0 0 1-.73-.621c-.178-.271-.266-.603-.266-.996 0-.339.065-.617.195-.836.13-.219.306-.392.527-.52.222-.127.47-.224.743-.289a7.39 7.39 0 0 1 .835-.148l.875-.102c.224-.029.387-.074.489-.137.101-.062.152-.164.152-.304v-.028c0-.34-.096-.605-.289-.793-.19-.187-.474-.28-.852-.28-.393 0-.703.086-.93.26a1.4 1.4 0 0 0-.464.575l-1.098-.25c.13-.364.32-.659.57-.883.253-.226.544-.39.872-.492a3.403 3.403 0 0 1 1.035-.156c.24 0 .493.028.762.086.27.055.523.156.757.305.237.148.431.36.583.636.15.274.226.63.226 1.067V21h-1.14v-.82h-.048c-.075.15-.188.3-.34.445a1.808 1.808 0 0 1-.581.363c-.237.097-.521.145-.852.145Zm.254-.938c.323 0 .599-.064.828-.191a1.34 1.34 0 0 0 .528-.5c.122-.208.183-.431.183-.668v-.773a.609.609 0 0 1-.242.117 3.769 3.769 0 0 1-.403.09l-.44.066a54.19 54.19 0 0 0-.36.047 2.9 2.9 0 0 0-.621.144 1.068 1.068 0 0 0-.446.293c-.109.125-.164.292-.164.5 0 .29.107.508.32.657.214.145.486.218.817.218Zm5.407-.832L53.07 15h1.258v6h-1.145v-4.367L50.549 21h-1.27v-6h1.145v4.363Zm2.145-6.394h.96c0 .44-.156.798-.468 1.074-.31.273-.73.41-1.258.41-.526 0-.944-.137-1.254-.41-.31-.276-.465-.634-.465-1.074h.957c0 .195.058.368.172.52.115.148.312.222.59.222.274 0 .469-.074.586-.223a.803.803 0 0 0 .18-.52Zm2.584 3.039V15h5.062v1.008h-1.957V21h-1.14v-4.992h-1.965Zm7.442 3.355L65.24 15h1.258v6h-1.145v-4.367L62.72 21h-1.27v-6h1.145v4.363Z"/></svg>