<svg xmlns="http://www.w3.org/2000/svg" width="59" height="34" fill="none"><g clip-path="url(#a)"><path fill="#4285F4" d="M42 0H17.35c-9.39 0-17 7.611-17 17s7.61 17 17 17H42c9.389 0 17-7.611 17-17S51.389 0 42 0Z"/><path fill="#fff" d="M13.947 21v-8h1.207v3.477h3.988V13h1.21v8h-1.21v-3.488h-3.988V21h-1.207Zm9.816.133c-.38 0-.724-.07-1.031-.211a1.738 1.738 0 0 1-.73-.621c-.178-.271-.266-.603-.266-.996 0-.339.065-.617.195-.836a1.44 1.44 0 0 1 .527-.52c.222-.127.47-.224.743-.289a7.39 7.39 0 0 1 .835-.148l.875-.102c.224-.029.387-.074.489-.137.101-.062.152-.164.152-.304v-.027c0-.342-.096-.606-.289-.794-.19-.187-.474-.28-.852-.28-.393 0-.703.086-.93.261a1.4 1.4 0 0 0-.464.574l-1.098-.25c.13-.364.32-.659.57-.883.253-.226.544-.39.872-.492a3.403 3.403 0 0 1 1.035-.156c.24 0 .493.028.762.086.27.055.523.156.757.305.237.148.431.36.582.636.151.274.227.63.227 1.067V21h-1.14v-.82h-.047c-.076.15-.19.3-.34.445a1.808 1.808 0 0 1-.582.363c-.237.097-.521.145-.852.145Zm.254-.938c.323 0 .599-.063.828-.191a1.34 1.34 0 0 0 .527-.5c.123-.208.184-.431.184-.668v-.773a.609.609 0 0 1-.242.117 3.769 3.769 0 0 1-.402.09 43.93 43.93 0 0 1-.442.066 54.19 54.19 0 0 0-.36.047 2.9 2.9 0 0 0-.62.144 1.068 1.068 0 0 0-.446.293c-.109.125-.164.292-.164.5 0 .29.107.508.32.657.214.145.486.218.817.218Zm5.407-.832L32.07 15h1.258v6h-1.145v-4.367L29.549 21h-1.27v-6h1.145v4.363Zm2.145-6.394h.96c0 .44-.156.798-.468 1.074-.31.273-.73.41-1.258.41-.526 0-.944-.137-1.254-.41-.31-.276-.465-.634-.465-1.074h.957c0 .195.058.368.172.52.115.148.311.222.59.222.274 0 .469-.074.586-.223a.803.803 0 0 0 .18-.52Zm2.584 3.039V15h5.062v1.008h-1.957V21h-1.14v-4.992h-1.965Zm7.442 3.355L44.24 15h1.258v6h-1.145v-4.367L41.72 21h-1.27v-6h1.145v4.363Z"/></g><defs><clipPath id="a"><path fill="#fff" d="M0 0h59v34H0z"/></clipPath></defs></svg>